<?xml version="1.0" encoding="UTF-8"?>
<svg width="137px" height="137px" viewBox="0 0 137 137" version="1.1" xmlns="http://www.w3.org/2000/svg" xmlns:xlink="http://www.w3.org/1999/xlink">
    <!-- Generator: Sketch 62 (91390) - https://sketch.com -->
    <title>Group 4</title>
    <desc>Created with Sketch.</desc>
    <defs>
        <rect id="path-1" x="15" y="15" width="72" height="72"></rect>
        <filter x="-35.4%" y="-32.6%" width="170.8%" height="170.8%" filterUnits="objectBoundingBox" id="filter-2">
            <feMorphology radius="1" operator="dilate" in="SourceAlpha" result="shadowSpreadOuter1"></feMorphology>
            <feOffset dx="0" dy="2" in="shadowSpreadOuter1" result="shadowOffsetOuter1"></feOffset>
            <feGaussianBlur stdDeviation="7" in="shadowOffsetOuter1" result="shadowBlurOuter1"></feGaussianBlur>
            <feComposite in="shadowBlurOuter1" in2="SourceAlpha" operator="out" result="shadowBlurOuter1"></feComposite>
            <feColorMatrix values="0 0 0 0 0.887681159   0 0 0 0 0.887681159   0 0 0 0 0.887681159  0 0 0 0.5 0" type="matrix" in="shadowBlurOuter1"></feColorMatrix>
        </filter>
    </defs>
    <g id="Page-1" stroke="none" stroke-width="1" fill="none" fill-rule="evenodd">
        <g id="Desktop-HD" transform="translate(-202.000000, -1562.000000)">
            <g id="Group-4" transform="translate(221.000000, 1577.911688)">
                <g id="Rectangle-Copy-5" transform="translate(51.000000, 51.000000) rotate(45.000000) translate(-51.000000, -51.000000) ">
                    <use fill="black" fill-opacity="1" filter="url(#filter-2)" xlink:href="#path-1"></use>
                    <use fill="#FFFFFF" fill-rule="evenodd" xlink:href="#path-1"></use>
                    <use stroke="#FFA92F" stroke-width="2" xlink:href="#path-1"></use>
                    <rect stroke-opacity="0.400376967" stroke="#FFA92F" stroke-width="7" stroke-linejoin="square" x="18.5" y="18.5" width="65" height="65"></rect>
                </g>
                <g id="wacom" transform="translate(37.000000, 38.088312)" fill="#FFA92F" fill-rule="nonzero">
                    <path d="M5.72727273,0 L3.69762288,0 C2.73476188,0 1.92158066,0.686072727 1.61526958,1.63636364 L0.739524576,1.63636364 C0.330764692,1.63636364 0,2.00230909 0,2.45454545 C0,2.90678182 0.330764692,3.27272727 0.739524576,3.27272727 L1.61526958,3.27272727 C1.92158066,4.22301818 2.73476188,4.90909091 3.69762288,4.90909091 L5.72727273,4.90909091 C5.27562042,4.20158182 5.00189772,3.36163636 5.00189772,2.45454545 C5.00189772,1.54745455 5.27562042,0.707509091 5.72727273,0 Z" id="Path"></path>
                    <path d="M20.4545455,0 L8.10929467,0 C8.07169273,0.0280909091 8.04281399,0.0645272727 7.99946881,0.0862909091 C7.10260273,0.537709091 6.54545455,1.4454 6.54545455,2.45454545 C6.54545455,3.46369091 7.10260273,4.37138182 7.99946881,4.8228 C8.04281399,4.84456364 8.07169273,4.88105455 8.10929467,4.90909091 L20.4545455,4.90909091 C19.9581889,4.20158182 19.6573733,3.36163636 19.6573733,2.45454545 C19.6573733,1.54745455 19.9581889,0.707509091 20.4545455,0 Z" id="Path"></path>
                    <path d="M26.4589575,1.31443582 L22.410531,0 C21.711513,0.460535633 21.2727273,1.2067154 21.2727273,2.04545455 C21.2727273,2.8841937 21.7115658,3.63037346 22.410531,4.09090909 L26.4589575,2.77647328 C26.7820318,2.67183646 27,2.37745546 27,2.04545455 C27,1.71345363 26.7820318,1.41907264 26.4589575,1.31443582 Z" id="Path"></path>
                    <path d="M21.2727273,20.4545455 C20.8213091,20.4545455 20.4545455,20.8213091 20.4545455,21.2727273 C20.4545455,21.7241455 20.8213091,22.0909091 21.2727273,22.0909091 C21.7241455,22.0909091 22.0909091,21.7241455 22.0909091,21.2727273 C22.0909091,20.8213091 21.7241455,20.4545455 21.2727273,20.4545455 Z" id="Path"></path>
                    <rect id="Rectangle" x="4.90909091" y="10.6363636" width="11.4545455" height="11.4545455"></rect>
                    <path d="M24.6269531,6.54545455 L2.37304688,6.54545455 C1.06449609,6.54545455 0,7.60416084 0,8.90559441 L0,24.6398601 C0,25.9412937 1.06449609,27 2.37304688,27 L24.6269531,27 C25.9355039,27 27,25.9412937 27,24.6398601 L27,8.90559441 C27,7.60416084 25.9355039,6.54545455 24.6269531,6.54545455 Z M17.5078125,23.0664336 C17.5078125,23.5012762 17.1540176,23.8531469 16.7167969,23.8531469 L3.95507812,23.8531469 C3.51785742,23.8531469 3.1640625,23.5012762 3.1640625,23.0664336 L3.1640625,10.479021 C3.1640625,10.0441783 3.51785742,9.69230769 3.95507812,9.69230769 L16.7167969,9.69230769 C17.1540176,9.69230769 17.5078125,10.0441783 17.5078125,10.479021 L17.5078125,23.0664336 Z M21.4628906,23.8531469 C20.1543398,23.8531469 19.0898438,22.7944406 19.0898438,21.493007 C19.0898438,20.1915734 20.1543398,19.1328671 21.4628906,19.1328671 C22.7714414,19.1328671 23.8359375,20.1915734 23.8359375,21.493007 C23.8359375,22.7944406 22.7714414,23.8531469 21.4628906,23.8531469 Z M23.0449219,17.5594406 L19.8808594,17.5594406 C19.4436387,17.5594406 19.0898438,17.2075699 19.0898438,16.7727273 C19.0898438,16.3378846 19.4436387,15.986014 19.8808594,15.986014 L23.0449219,15.986014 C23.4821426,15.986014 23.8359375,16.3378846 23.8359375,16.7727273 C23.8359375,17.2075699 23.4821426,17.5594406 23.0449219,17.5594406 Z M23.0449219,14.4125874 L19.8808594,14.4125874 C19.4436387,14.4125874 19.0898438,14.0607168 19.0898438,13.6258741 C19.0898438,13.1910315 19.4436387,12.8391608 19.8808594,12.8391608 L23.0449219,12.8391608 C23.4821426,12.8391608 23.8359375,13.1910315 23.8359375,13.6258741 C23.8359375,14.0607168 23.4821426,14.4125874 23.0449219,14.4125874 Z M23.0449219,11.2657343 L19.8808594,11.2657343 C19.4436387,11.2657343 19.0898438,10.9138636 19.0898438,10.479021 C19.0898438,10.0441783 19.4436387,9.69230769 19.8808594,9.69230769 L23.0449219,9.69230769 C23.4821426,9.69230769 23.8359375,10.0441783 23.8359375,10.479021 C23.8359375,10.9138636 23.4821426,11.2657343 23.0449219,11.2657343 Z" id="Shape"></path>
                </g>
            </g>
        </g>
    </g>
</svg>