<?xml version="1.0" encoding="UTF-8"?>
<svg width="137px" height="137px" viewBox="0 0 137 137" version="1.1" xmlns="http://www.w3.org/2000/svg" xmlns:xlink="http://www.w3.org/1999/xlink">
    <!-- Generator: Sketch 62 (91390) - https://sketch.com -->
    <title>Group 3</title>
    <desc>Created with Sketch.</desc>
    <defs>
        <rect id="path-1" x="15" y="15" width="72" height="72"></rect>
        <filter x="-35.4%" y="-32.6%" width="170.8%" height="170.8%" filterUnits="objectBoundingBox" id="filter-2">
            <feMorphology radius="1" operator="dilate" in="SourceAlpha" result="shadowSpreadOuter1"></feMorphology>
            <feOffset dx="0" dy="2" in="shadowSpreadOuter1" result="shadowOffsetOuter1"></feOffset>
            <feGaussianBlur stdDeviation="7" in="shadowOffsetOuter1" result="shadowBlurOuter1"></feGaussianBlur>
            <feComposite in="shadowBlurOuter1" in2="SourceAlpha" operator="out" result="shadowBlurOuter1"></feComposite>
            <feColorMatrix values="0 0 0 0 0.887681159   0 0 0 0 0.887681159   0 0 0 0 0.887681159  0 0 0 0.5 0" type="matrix" in="shadowBlurOuter1"></feColorMatrix>
        </filter>
    </defs>
    <g id="Page-1" stroke="none" stroke-width="1" fill="none" fill-rule="evenodd">
        <g id="Desktop-HD" transform="translate(-201.000000, -1292.000000)">
            <g id="Group-3" transform="translate(220.000000, 1308.000000)">
                <g id="Group-2">
                    <g id="Rectangle-Copy-3" transform="translate(51.000000, 51.000000) rotate(45.000000) translate(-51.000000, -51.000000) ">
                        <use fill="black" fill-opacity="1" filter="url(#filter-2)" xlink:href="#path-1"></use>
                        <use fill="#FFFFFF" fill-rule="evenodd" xlink:href="#path-1"></use>
                        <use stroke="#FFA92F" stroke-width="2" xlink:href="#path-1"></use>
                        <rect stroke-opacity="0.400376967" stroke="#FFA92F" stroke-width="7" stroke-linejoin="square" x="18.5" y="18.5" width="65" height="65"></rect>
                    </g>
                    <g id="ux" transform="translate(36.000000, 36.000000)" fill="#FFA92F" fill-rule="nonzero">
                        <path d="M11,11.5 C11,12.3283691 10.3283691,13 9.5,13 C8.67163087,13 8,12.3283691 8,11.5 C8,10.6716309 8.67163087,10 9.5,10 C10.3283691,10 11,10.6716309 11,11.5 Z" id="Path"></path>
                        <path d="M18.3537838,1.5 C18.3537838,1.22387694 18.6113364,1 18.928994,1 L24,1 C23.7570523,0.402832 23.1088173,0.00268555 22.3802552,0 L9.72563063,0 C8.77265787,0 8,0.671630875 8,1.5 L8,2 L18.3537838,2 L18.3537838,1.5 Z" id="Path"></path>
                        <path d="M11,18.4182622 L11,17.5135002 C11,16.1254295 9.6567383,15 8,15 C6.3432617,15 5,16.1254295 5,17.5135002 L5,18.4182622 C5.74824215,18.7390771 6.5629883,18.9364261 7.4,19 L7.4,18.0162003 L8.6,18.0162003 L8.6,18.9985272 C9.43671875,18.9351988 10.2514648,18.7383407 11,18.4182622 Z" id="Path"></path>
                        <path d="M3,12.1215282 L3.9791295,12.1215282 L3.9791295,13.151062 L3.00122635,13.151062 C3.12754192,14.5772276 3.77604352,15.9013448 4.81649129,16.857484 C4.87020601,16.9087596 4.92809042,16.9504839 4.98376739,16.9974865 L4.98376739,16.7544301 C4.98499374,15.4097021 5.71688814,14.1775795 6.88193455,13.5587533 C6.07498661,12.8622597 5.77894217,11.7231369 6.14071975,10.7076788 C6.50249732,9.69196937 7.44508118,9.01633785 8.5,9.01633785 C9.55491882,9.01633785 10.4975027,9.69196937 10.8592803,10.7076788 C11.2210578,11.7231369 10.9250134,12.8622597 10.1180654,13.5587533 C11.2831119,14.1775795 12.0150063,15.4097021 12.0162326,16.7544301 L12.0162326,17 C12.071419,16.9524947 12.1293034,16.9092623 12.1835087,16.8599975 C13.2244471,15.9033556 13.8731939,14.578233 13.9987737,13.151062 L13.0208705,13.151062 L13.0208705,12.1215282 L14,12.1215282 C13.7544818,9.40392108 11.6542098,7.25160235 9.00231894,7 L9.00231894,8.00339324 L7.99768106,8.00339324 L7.99768106,7 C5.34579022,7.25160235 3.24551818,9.40392108 3,12.1215282 Z" id="Path"></path>
                        <path d="M18,8 L29,8 L29,2 L18,2 L18,8 Z M22.4,3.2 L27.9,3.2 L27.9,4.4 L22.4,4.4 L22.4,3.2 Z M19.1,3.2 L21.3,3.2 L21.3,4.4 L19.1,4.4 L19.1,3.2 Z M19.1,5.6 L27.9,5.6 L27.9,6.8 L19.1,6.8 L19.1,5.6 Z" id="Shape"></path>
                        <path d="M12.5714286,28 C12.5714286,28.2761231 12.3155692,28.5 12,28.5 L8,28.5 C8,29.3283691 8.76757814,30 9.71428571,30 L22.2857143,30 C23.2324219,30 24,29.3283691 24,28.5 L24,27 L12.5714286,27 L12.5714286,28 Z M15.4285714,28 L16.5714286,28 L16.5714286,29 L15.4285714,29 L15.4285714,28 Z" id="Shape"></path>
                        <path d="M11,25 L0,25 L0,28 L11,28 L11,25 Z M3.85,27 L1.1,27 L1.1,26 L3.85,26 L3.85,27 Z M9.9,27 L4.95,27 L4.95,26 L9.9,26 L9.9,27 Z" id="Shape"></path>
                        <path d="M29.329167,11 C29.1657563,10.9997226 29.0079131,11.0595745 28.8854247,11.1675862 L20,19.0079063 L21.9926646,21 L29.8324833,12.1146381 C30.0067509,11.9167093 30.0490651,11.6352662 29.9404958,11.3947451 C29.8319265,11.1545024 29.5927956,11 29.329167,11 Z" id="Path"></path>
                        <path d="M16.3598835,21.2190336 L16.3598835,22.0045111 C16.3608032,22.3525735 16.2369591,22.6952009 16,23 L18.871098,23 C20.5065141,22.9986956 21.8675727,22.107995 22,20.9518452 L19.2478414,19 C17.6176366,19.0941355 16.3620294,20.059188 16.3598835,21.2190336 L16.3598835,21.2190336 Z" id="Path"></path>
                        <path d="M20.5714286,23.952381 L16.5714286,23.952381 C16.3038504,23.9551944 16.0700335,23.7874117 16.0086496,23.5485258 C15.9475446,23.3098958 16.0750558,23.0641044 16.3161272,22.957194 C16.8233817,22.7270043 17.1439732,22.2525576 17.1428571,21.7336077 L17.1428571,20.8095238 C17.1453683,18.8674898 18.7993861,17.2643462 20.9143415,17.1533435 L24,14.6573195 L24,8.23809524 L18.8571429,8.23809524 C18.5415736,8.23809524 18.2857143,8.00355749 18.2857143,7.71428571 L18.2857143,3 L8,3 L8,5.80908205 C8.37583707,5.72749256 8.7578125,5.67275852 9.14285714,5.64564732 L9.14285714,4.04761905 L10.2857143,4.04761905 L10.2857143,5.64564732 C13.9321986,5.90678477 16.8289621,8.56215124 17.1138393,11.9047619 L18.8571429,11.9047619 L18.8571429,12.952381 L17.1124442,12.952381 C16.8429129,16.3013858 13.9391741,18.9649368 10.2857143,19.2140532 L10.2857143,20.8095238 L9.14285714,20.8095238 L9.14285714,19.2140532 C8.7578125,19.1864305 8.375558,19.1311849 8,19.0485724 L8,22.3809524 L12,22.3809524 C12.3155692,22.3809524 12.5714286,22.6154901 12.5714286,22.9047619 L12.5714286,25 L24,25 L24,22.164574 C23.2792969,23.2715308 21.9776786,23.9503348 20.5714286,23.952381 L20.5714286,23.952381 Z" id="Path"></path>
                        <path d="M4,2 L0,2 L0,5 L4,5 L4,2 Z M3,4 L1,4 L1,3 L3,3 L3,4 Z" id="Shape"></path>
                    </g>
                </g>
            </g>
        </g>
    </g>
</svg>