<?xml version="1.0" encoding="UTF-8"?>
<svg width="137px" height="137px" viewBox="0 0 137 137" version="1.1" xmlns="http://www.w3.org/2000/svg" xmlns:xlink="http://www.w3.org/1999/xlink">
    <!-- Generator: Sketch 62 (91390) - https://sketch.com -->
    <title>Group</title>
    <desc>Created with Sketch.</desc>
    <defs>
        <rect id="path-1" x="15" y="15" width="72" height="72"></rect>
        <filter x="-35.4%" y="-32.6%" width="170.8%" height="170.8%" filterUnits="objectBoundingBox" id="filter-2">
            <feMorphology radius="1" operator="dilate" in="SourceAlpha" result="shadowSpreadOuter1"></feMorphology>
            <feOffset dx="0" dy="2" in="shadowSpreadOuter1" result="shadowOffsetOuter1"></feOffset>
            <feGaussianBlur stdDeviation="7" in="shadowOffsetOuter1" result="shadowBlurOuter1"></feGaussianBlur>
            <feComposite in="shadowBlurOuter1" in2="SourceAlpha" operator="out" result="shadowBlurOuter1"></feComposite>
            <feColorMatrix values="0 0 0 0 0.887681159   0 0 0 0 0.887681159   0 0 0 0 0.887681159  0 0 0 0.5 0" type="matrix" in="shadowBlurOuter1"></feColorMatrix>
        </filter>
    </defs>
    <g id="Page-1" stroke="none" stroke-width="1" fill="none" fill-rule="evenodd">
        <g id="Desktop-HD" transform="translate(-202.000000, -1083.000000)">
            <g id="Group" transform="translate(221.000000, 1099.000000)">
                <g id="Rectangle" transform="translate(51.000000, 51.000000) rotate(45.000000) translate(-51.000000, -51.000000) ">
                    <use fill="black" fill-opacity="1" filter="url(#filter-2)" xlink:href="#path-1"></use>
                    <use fill="#FFFFFF" fill-rule="evenodd" xlink:href="#path-1"></use>
                    <use stroke="#FFA92F" stroke-width="2" xlink:href="#path-1"></use>
                    <rect stroke-opacity="0.400376967" stroke="#FFA92F" stroke-width="7" stroke-linejoin="square" x="18.5" y="18.5" width="65" height="65"></rect>
                </g>
                <g id="code" transform="translate(37.000000, 39.000000)" fill="#FFA92F" fill-rule="nonzero">
                    <path d="M11.4253328,3 L11.4235917,3 C11.1473298,3.00230017 10.9242696,3.22522524 10.9238816,3.49932911 C10.9233023,3.77324136 11.1455887,3.99654977 11.4222374,4 L11.4239786,4 C11.7002404,3.99750816 11.9233007,3.77477481 11.9238816,3.50067089 C11.9242679,3.22656697 11.7019816,3.00325857 11.4253328,3 Z" id="Path"></path>
                    <path d="M-0.0761184457,21.7378462 C-0.0748400367,22.9865294 0.931907136,23.9985005 2.17388155,24 L24.6738816,24 C25.915856,23.9985005 26.9226031,22.9865294 26.9238816,21.7378462 L26.9238816,7 L-0.0761184457,7 L-0.0761184457,21.7378462 Z M16.16266,12.5679831 C15.9617367,12.3961794 15.937873,12.0932735 16.1087537,11.8912649 C16.2794213,11.6896847 16.5806997,11.6652638 16.781623,11.8372817 L19.8696202,14.4811739 C19.9761543,14.5726455 20.0375179,14.706104 20.0375179,14.846846 C20.0375179,14.9873737 19.9761543,15.1210464 19.8696202,15.2120895 L16.781623,17.8559818 C16.5806997,18.0279997 16.2794213,18.0035787 16.1087537,17.8019985 C15.937873,17.6002041 15.9617367,17.2975125 16.16266,17.1254946 L18.8238816,14.846846 L16.16266,12.5679831 Z M11.862944,19.3747952 L13.787802,10.1869377 C13.8419213,9.92751836 14.0952594,9.76149853 14.3530719,9.81612442 C14.6110975,9.87075025 14.7760122,10.1254568 14.7216799,10.3846619 L12.7970349,19.5727337 C12.7424895,19.832153 12.4895776,19.9979586 12.231552,19.9433328 C11.9737395,19.8887069 11.8086117,19.6342146 11.862944,19.3747952 L11.862944,19.3747952 Z M6.97814292,14.4811739 L10.0661401,11.8372817 C10.2670634,11.6652638 10.5683418,11.6896847 10.7390094,11.8912649 C10.9098901,12.0932735 10.8860264,12.3961794 10.6851031,12.5679831 L8.02388155,14.846846 L10.6855293,17.1254946 C10.8860264,17.2975125 10.9101031,17.6002041 10.7392225,17.8019985 C10.5685549,18.0035787 10.2670634,18.0279997 10.0663531,17.8559818 L6.97835597,15.2120895 C6.87182188,15.1210464 6.81045825,14.9873737 6.81045825,14.846846 C6.81045825,14.706104 6.87182188,14.5726455 6.97835597,14.4811739 L6.97814292,14.4811739 Z" id="Shape"></path>
                    <path d="M7.42555333,3 L7.42378343,3 C7.14590753,3.00690184 6.92407877,3.2283359 6.92388155,3.49942483 C6.92348879,3.77032206 7.14433427,3.99233129 7.42221018,4 L7.42378343,4 C7.70165933,3.99309816 7.92329144,3.7716641 7.92388155,3.50095858 C7.92407807,3.22986964 7.70303594,3.00786042 7.42535668,3 L7.42555333,3 Z" id="Path"></path>
                    <path d="M24.6738816,0 L2.17388155,0 C0.931907136,0.00133776411 -0.0748400367,1.05484952 -0.0761184457,2.35451506 L-0.0761184457,6 L26.9238816,6 L26.9238816,2.35451506 C26.9226031,1.05484952 25.915856,0.00133776411 24.6738816,0 Z M2.48325655,4.593534 L2.47856908,4.593534 C1.64355486,4.59219623 0.967702591,3.88294312 0.968341356,3.0091416 C0.968980972,2.13534002 1.64589857,1.42742473 2.48091279,1.42742473 C3.31614006,1.42742473 3.99327077,2.13534002 3.99369769,3.0091416 C3.99454915,3.88294312 3.31848383,4.59219623 2.48325655,4.593534 Z M8.63432511,3.03299891 C8.63091279,3.90367895 7.95569974,4.60780378 7.12388155,4.60869565 L7.11919403,4.60869565 C6.29483325,4.59331104 5.63453494,3.88874025 5.63602391,3.02586402 C5.63709181,2.16321068 6.29930766,1.46086957 7.1236685,1.4481605 L7.12878214,1.4481605 C7.96251792,1.45172795 8.63602391,2.16098106 8.63432511,3.03344482 L8.63432511,3.03299891 Z M13.2749469,3.04838352 C13.2723901,3.91906355 12.597177,4.62363434 11.7649327,4.6238573 L11.7602452,4.6238573 C10.9299185,4.61694541 10.2608844,3.90992198 10.2619485,3.04080266 C10.2632282,2.17190635 10.9348191,1.4671126 11.7651458,1.46287625 L11.7696202,1.46287625 C12.6035691,1.46644369 13.2770776,2.17569675 13.2751641,3.04838352 L13.2749469,3.04838352 Z" id="Shape"></path>
                    <path d="M2.42544743,3 L2.4236862,3 C2.14638727,3.0053681 1.92427413,3.22718557 1.92388155,3.49904142 C1.92329567,3.77108893 2.14462598,3.99348157 2.42231632,4 L2.4236862,4 C2.70137654,3.99424849 2.92329394,3.77262267 2.92388155,3.50057517 C2.9242724,3.22871931 2.70294209,3.00632667 2.42544743,3 Z" id="Path"></path>
                </g>
            </g>
        </g>
    </g>
</svg>